<svg width="131" height="16" viewBox="0 0 131 16" fill="none" xmlns="http://www.w3.org/2000/svg">
<path d="M20.85 0.539999L16.36 15H13.93L10.77 5.12C10.6833 4.88 10.6033 4.58667 10.53 4.24C10.49 4.40667 10.45 4.56333 10.41 4.71C10.37 4.85667 10.3267 4.99333 10.28 5.12L7.09 15H4.65L0.17 0.539999H2.42C2.65333 0.539999 2.84667 0.596666 3 0.71C3.16 0.816666 3.26667 0.963332 3.32 1.15L5.78 9.8C5.83333 10.0133 5.88333 10.2467 5.93 10.5C5.98333 10.7467 6.03667 11.0067 6.09 11.28C6.14333 11 6.2 10.7367 6.26 10.49C6.32667 10.2433 6.39667 10.0133 6.47 9.8L9.31 1.15C9.36333 0.996666 9.46667 0.856666 9.62 0.73C9.78 0.603333 9.97333 0.539999 10.2 0.539999H10.99C11.2233 0.539999 11.4133 0.596666 11.56 0.71C11.7067 0.823333 11.8167 0.969999 11.89 1.15L14.72 9.8C14.86 10.2133 14.9867 10.69 15.1 11.23C15.1867 10.7033 15.2833 10.2267 15.39 9.8L17.85 1.15C17.89 0.983332 17.99 0.839999 18.15 0.719999C18.3167 0.599999 18.5133 0.539999 18.74 0.539999H20.85ZM25.3256 15H22.6256V0.539999H25.3256V15ZM37.0331 12.78V15H28.5631V0.539999H31.2531V12.78H37.0331ZM51.7938 7.77C51.7938 8.83 51.6171 9.80333 51.2638 10.69C50.9104 11.5767 50.4138 12.34 49.7738 12.98C49.1338 13.62 48.3638 14.1167 47.4638 14.47C46.5638 14.8233 45.5638 15 44.4638 15H38.9538V0.539999H44.4638C45.5638 0.539999 46.5638 0.719999 47.4638 1.08C48.3638 1.43333 49.1338 1.93 49.7738 2.57C50.4138 3.20333 50.9104 3.96333 51.2638 4.85C51.6171 5.73667 51.7938 6.71 51.7938 7.77ZM49.0338 7.77C49.0338 6.97667 48.9271 6.26667 48.7138 5.64C48.5071 5.00667 48.2038 4.47333 47.8038 4.04C47.4104 3.6 46.9304 3.26333 46.3638 3.03C45.8038 2.79667 45.1704 2.68 44.4638 2.68H41.6538V12.86H44.4638C45.1704 12.86 45.8038 12.7433 46.3638 12.51C46.9304 12.2767 47.4104 11.9433 47.8038 11.51C48.2038 11.07 48.5071 10.5367 48.7138 9.91C48.9271 9.27667 49.0338 8.56333 49.0338 7.77ZM64.0986 11.59C64.2453 11.59 64.3753 11.6467 64.4886 11.76L65.5486 12.91C64.9619 13.6367 64.2386 14.1933 63.3786 14.58C62.5253 14.9667 61.4986 15.16 60.2986 15.16C59.2253 15.16 58.2586 14.9767 57.3986 14.61C56.5453 14.2433 55.8153 13.7333 55.2086 13.08C54.6019 12.4267 54.1353 11.6467 53.8086 10.74C53.4886 9.83333 53.3286 8.84333 53.3286 7.77C53.3286 6.68333 53.5019 5.69 53.8486 4.79C54.1953 3.88333 54.6819 3.10333 55.3086 2.45C55.9419 1.79667 56.6953 1.29 57.5686 0.929999C58.4419 0.563333 59.4086 0.38 60.4686 0.38C61.5219 0.38 62.4553 0.553333 63.2686 0.899999C64.0886 1.24667 64.7853 1.7 65.3586 2.26L64.4586 3.51C64.4053 3.59 64.3353 3.66 64.2486 3.72C64.1686 3.78 64.0553 3.81 63.9086 3.81C63.8086 3.81 63.7053 3.78333 63.5986 3.73C63.4919 3.67 63.3753 3.6 63.2486 3.52C63.1219 3.43333 62.9753 3.34 62.8086 3.24C62.6419 3.14 62.4486 3.05 62.2286 2.97C62.0086 2.88333 61.7519 2.81333 61.4586 2.76C61.1719 2.7 60.8386 2.67 60.4586 2.67C59.8119 2.67 59.2186 2.78667 58.6786 3.02C58.1453 3.24667 57.6853 3.58 57.2986 4.02C56.9119 4.45333 56.6119 4.98667 56.3986 5.62C56.1853 6.24667 56.0786 6.96333 56.0786 7.77C56.0786 8.58333 56.1919 9.30667 56.4186 9.94C56.6519 10.5733 56.9653 11.1067 57.3586 11.54C57.7519 11.9733 58.2153 12.3067 58.7486 12.54C59.2819 12.7667 59.8553 12.88 60.4686 12.88C60.8353 12.88 61.1653 12.86 61.4586 12.82C61.7586 12.78 62.0319 12.7167 62.2786 12.63C62.5319 12.5433 62.7686 12.4333 62.9886 12.3C63.2153 12.16 63.4386 11.99 63.6586 11.79C63.7253 11.73 63.7953 11.6833 63.8686 11.65C63.9419 11.61 64.0186 11.59 64.0986 11.59ZM79.5813 0.539999V15H76.8813V8.68H70.0913V15H67.3913V0.539999H70.0913V6.76H76.8813V0.539999H79.5813ZM85.5014 2.68V6.69H90.5614V8.76H85.5014V12.85H91.9214V15H82.8014V0.539999H91.9214V2.68H85.5014ZM98.6753 7.42C99.182 7.42 99.622 7.35667 99.9953 7.23C100.375 7.10333 100.685 6.93 100.925 6.71C101.172 6.48333 101.355 6.21667 101.475 5.91C101.595 5.60333 101.655 5.26667 101.655 4.9C101.655 4.16667 101.412 3.60333 100.925 3.21C100.445 2.81667 99.7086 2.62 98.7153 2.62H96.9953V7.42H98.6753ZM105.595 15H103.165C102.705 15 102.372 14.82 102.165 14.46L99.1253 9.83C99.012 9.65667 98.8853 9.53333 98.7453 9.46C98.612 9.38667 98.412 9.35 98.1453 9.35H96.9953V15H94.3053V0.539999H98.7153C99.6953 0.539999 100.535 0.643332 101.235 0.849999C101.942 1.05 102.519 1.33333 102.965 1.7C103.419 2.06667 103.752 2.50667 103.965 3.02C104.179 3.52667 104.285 4.08667 104.285 4.7C104.285 5.18667 104.212 5.64667 104.065 6.08C103.925 6.51333 103.719 6.90667 103.445 7.26C103.179 7.61333 102.845 7.92333 102.445 8.19C102.052 8.45667 101.602 8.66667 101.095 8.82C101.269 8.92 101.429 9.04 101.575 9.18C101.722 9.31333 101.855 9.47333 101.975 9.66L105.595 15ZM111.527 7.42C112.034 7.42 112.474 7.35667 112.847 7.23C113.227 7.10333 113.537 6.93 113.777 6.71C114.024 6.48333 114.207 6.21667 114.327 5.91C114.447 5.60333 114.507 5.26667 114.507 4.9C114.507 4.16667 114.264 3.60333 113.777 3.21C113.297 2.81667 112.56 2.62 111.567 2.62H109.847V7.42H111.527ZM118.447 15H116.017C115.557 15 115.224 14.82 115.017 14.46L111.977 9.83C111.864 9.65667 111.737 9.53333 111.597 9.46C111.464 9.38667 111.264 9.35 110.997 9.35H109.847V15H107.157V0.539999H111.567C112.547 0.539999 113.387 0.643332 114.087 0.849999C114.794 1.05 115.37 1.33333 115.817 1.7C116.27 2.06667 116.604 2.50667 116.817 3.02C117.03 3.52667 117.137 4.08667 117.137 4.7C117.137 5.18667 117.064 5.64667 116.917 6.08C116.777 6.51333 116.57 6.90667 116.297 7.26C116.03 7.61333 115.697 7.92333 115.297 8.19C114.904 8.45667 114.454 8.66667 113.947 8.82C114.12 8.92 114.28 9.04 114.427 9.18C114.574 9.31333 114.707 9.47333 114.827 9.66L118.447 15ZM125.554 9.4V15H122.874V9.4L117.604 0.539999H119.974C120.208 0.539999 120.391 0.596666 120.524 0.71C120.664 0.823333 120.781 0.966666 120.874 1.14L123.514 5.97C123.668 6.25667 123.801 6.52667 123.914 6.78C124.034 7.03333 124.141 7.28667 124.234 7.54C124.321 7.28667 124.421 7.03333 124.534 6.78C124.648 6.52667 124.778 6.25667 124.924 5.97L127.554 1.14C127.628 0.993332 127.738 0.856666 127.884 0.73C128.031 0.603333 128.218 0.539999 128.444 0.539999H130.824L125.554 9.4Z" fill="#DE3163"/>
</svg>
