<svg width="24" height="24" viewBox="0 0 24 24" fill="none" xmlns="http://www.w3.org/2000/svg">
<path d="M23.4738 4.9396C23.0191 4.32219 22.3114 3.94635 21.5787 3.94635H6.19059L5.71046 1.9597C5.4325 0.805425 4.47228 0 3.36063 0H0.78326C0.353728 0 0 0.375833 0 0.832175C0 1.28853 0.353742 1.66435 0.78326 1.66435H3.36063C3.73958 1.66435 4.06813 1.93289 4.1693 2.3355L7.25198 15.3826C7.52994 16.5369 8.49015 17.3423 9.60181 17.3423H19.6837C20.7955 17.3423 21.7809 16.5369 22.0335 15.3826L23.9286 7.11407C24.1054 6.36238 23.9538 5.55715 23.4737 4.9396H23.4738ZM22.3874 6.73828L20.4923 15.0068C20.3913 15.4094 20.0628 15.678 19.6837 15.678H9.60176C9.22281 15.678 8.89426 15.4094 8.7931 15.0068L6.59483 5.63759H21.5787C21.8315 5.63759 22.084 5.77186 22.2356 5.98665C22.3874 6.20144 22.4632 6.46997 22.3874 6.73833L22.3874 6.73828Z" fill="#242734"/>
<path d="M10.1324 18.4163C8.69205 18.4163 7.50464 19.678 7.50464 21.2081C7.50464 22.7385 8.69223 24 10.1324 24C11.5728 24.0002 12.7604 22.7385 12.7604 21.2081C12.7604 19.678 11.5728 18.4163 10.1324 18.4163V18.4163ZM10.1324 22.3089C9.55129 22.3089 9.09638 21.8257 9.09638 21.2081C9.09638 20.5907 9.55111 20.1074 10.1324 20.1074C10.7135 20.1074 11.1684 20.5905 11.1684 21.2081C11.1684 21.7987 10.6883 22.3089 10.1324 22.3089Z" fill="#242734"/>
<path d="M18.8245 18.4163C17.3842 18.4163 16.1968 19.678 16.1968 21.2081C16.1968 22.7385 17.3844 24 18.8245 24C20.2649 24 21.4523 22.7383 21.4523 21.2081C21.4271 19.678 20.2649 18.4163 18.8245 18.4163V18.4163ZM18.8245 22.3089C18.2434 22.3089 17.7885 21.8257 17.7885 21.2081C17.7885 20.5907 18.2433 20.1074 18.8245 20.1074C19.4057 20.1074 19.8606 20.5905 19.8606 21.2081C19.8606 21.7987 19.3804 22.3089 18.8245 22.3089V22.3089Z" fill="#242734"/>
</svg>
