<svg width="20" height="20" viewBox="0 0 20 20" fill="none" xmlns="http://www.w3.org/2000/svg">
<path d="M7.625 9.38335H3.45833C3.03245 9.38118 2.62464 9.21101 2.32349 8.90985C2.02234 8.60876 1.85219 8.20091 1.85 7.77503V3.60836C1.85219 3.18249 2.02234 2.77467 2.32349 2.47352C2.62464 2.17237 3.03245 2.00222 3.45833 2.00003H7.625C8.05088 2.00222 8.45867 2.17237 8.75983 2.47352C9.061 2.77467 9.23117 3.18249 9.23333 3.60836V7.77503C9.23117 8.20091 9.061 8.60876 8.75983 8.90985C8.45867 9.21101 8.05088 9.38118 7.625 9.38335ZM3.45833 3.25003C3.36397 3.25216 3.27405 3.29059 3.2073 3.35734C3.14056 3.42408 3.10212 3.514 3.1 3.60836V7.77503C3.1 7.87007 3.13775 7.96121 3.20496 8.02841C3.27216 8.09561 3.3633 8.13336 3.45833 8.13336H7.625C7.72003 8.13336 7.81118 8.09561 7.87838 8.02841C7.94558 7.96121 7.98333 7.87007 7.98333 7.77503V3.60836C7.98333 3.51333 7.94558 3.42219 7.87838 3.35499C7.81118 3.28779 7.72003 3.25003 7.625 3.25003H3.45833Z" fill="white"/>
<path d="M16.5417 9.38335H12.375C11.9492 9.38118 11.5413 9.21101 11.2402 8.90985C10.939 8.60876 10.7688 8.20091 10.7667 7.77503V3.60836C10.7688 3.18249 10.939 2.77467 11.2402 2.47352C11.5413 2.17237 11.9492 2.00222 12.375 2.00003H16.5417C16.9676 2.00222 17.3753 2.17237 17.6765 2.47352C17.9777 2.77467 18.1478 3.18249 18.15 3.60836V7.77503C18.1478 8.20091 17.9777 8.60876 17.6765 8.90985C17.3753 9.21101 16.9676 9.38118 16.5417 9.38335ZM12.375 3.25003C12.28 3.25003 12.1888 3.28779 12.1217 3.35499C12.0544 3.42219 12.0167 3.51333 12.0167 3.60836V7.77503C12.0167 7.87007 12.0544 7.96121 12.1217 8.02841C12.1888 8.09561 12.28 8.13336 12.375 8.13336H16.5417C16.6367 8.13336 16.7278 8.09561 16.7951 8.02841C16.8622 7.96121 16.9 7.87007 16.9 7.77503V3.60836C16.9 3.51333 16.8622 3.42219 16.7951 3.35499C16.7278 3.28779 16.6367 3.25003 16.5417 3.25003H12.375Z" fill="white"/>
<path d="M7.625 18.0001H3.45833C3.03245 17.9978 2.62464 17.8277 2.32349 17.5266C2.02234 17.2254 1.85219 16.8176 1.85 16.3918V12.2251C1.85219 11.7992 2.02234 11.3913 2.32349 11.0902C2.62464 10.7891 3.03245 10.6189 3.45833 10.6168H7.625C8.05088 10.6189 8.45867 10.7891 8.75983 11.0902C9.061 11.3913 9.23117 11.7992 9.23333 12.2251V16.3918C9.23117 16.8176 9.061 17.2254 8.75983 17.5266C8.45867 17.8277 8.05088 17.9978 7.625 18.0001ZM3.45833 11.8668C3.3633 11.8668 3.27216 11.9045 3.20496 11.9717C3.13775 12.0388 3.1 12.13 3.1 12.2251V16.3918C3.10212 16.4861 3.14056 16.576 3.2073 16.6428C3.27405 16.7095 3.36397 16.7479 3.45833 16.7501H7.625C7.72003 16.7501 7.81118 16.7123 7.87838 16.6451C7.94558 16.5779 7.98333 16.4868 7.98333 16.3918V12.2251C7.98333 12.13 7.94558 12.0388 7.87838 11.9717C7.81118 11.9045 7.72003 11.8668 7.625 11.8668H3.45833Z" fill="white"/>
<path d="M16.5417 18.0001H12.375C11.9492 17.9978 11.5413 17.8277 11.2402 17.5266C10.939 17.2254 10.7688 16.8176 10.7667 16.3918V12.2251C10.7688 11.7992 10.939 11.3913 11.2402 11.0902C11.5413 10.7891 11.9492 10.6189 12.375 10.6168H16.5417C16.9676 10.6189 17.3753 10.7891 17.6765 11.0902C17.9777 11.3913 18.1478 11.7992 18.15 12.2251V16.3918C18.1478 16.8176 17.9777 17.2254 17.6765 17.5266C17.3753 17.8277 16.9676 17.9978 16.5417 18.0001ZM12.375 11.8668C12.28 11.8668 12.1888 11.9045 12.1217 11.9717C12.0544 12.0388 12.0167 12.13 12.0167 12.2251V16.3918C12.0167 16.4868 12.0544 16.5779 12.1217 16.6451C12.1888 16.7123 12.28 16.7501 12.375 16.7501H16.5417C16.6367 16.7501 16.7278 16.7123 16.7951 16.6451C16.8622 16.5779 16.9 16.4868 16.9 16.3918V12.2251C16.9 12.13 16.8622 12.0388 16.7951 11.9717C16.7278 11.9045 16.6367 11.8668 16.5417 11.8668H12.375Z" fill="white"/>
</svg>
