<svg width="24" height="24" viewBox="0 0 24 24" fill="none" xmlns="http://www.w3.org/2000/svg">
<path d="M23.9634 4.29614V4.24607C23.9434 4.20985 23.9189 4.17632 23.8905 4.14592L23.8488 4.1059H23.8486C23.8153 4.07818 23.7785 4.05449 23.7391 4.03571H23.6974L12.2192 0.0298427C12.1046 -0.00994757 11.979 -0.00994757 11.8644 0.0298427L0.386179 4.03571H0.344254C0.30489 4.05449 0.268091 4.07818 0.234784 4.1059L0.193091 4.14592C0.164442 4.17632 0.139986 4.20985 0.119953 4.24607V4.29614C0.0675454 4.34576 0.026552 4.40545 0 4.4714V19.4934C0 19.7042 0.137656 19.8924 0.344253 19.9642L11.8225 23.97C11.8796 23.9897 11.9394 24 12 24C12.0531 23.9993 12.106 23.9908 12.1565 23.975L23.6348 19.9691C23.8514 19.9038 23.9991 19.7114 24 19.4934V4.4714C23.9988 4.41126 23.9865 4.35203 23.9634 4.29614V4.29614ZM11.9998 7.94657L10.1632 7.30569L19.5021 3.64026L21.9491 4.47137L11.9998 7.94657ZM5.21719 6.64466L7.82589 7.55606V9.77428L6.63102 8.62751C6.49359 8.49808 6.29305 8.45203 6.10928 8.50724L5.21719 8.78265V6.64466ZM6.26067 5.93872L15.8452 2.43358V2.43336C15.8822 2.41726 15.9171 2.39714 15.9495 2.37322L18.0782 3.1194L8.68685 6.7949L6.26067 5.93872ZM11.9998 0.996448L14.473 1.86269L4.75311 5.4179L2.05033 4.47142L11.9998 0.996448ZM1.04328 19.143V5.18773L4.17372 6.27927V9.47904C4.17325 9.64066 4.25407 9.79245 4.39079 9.88678C4.52729 9.98112 4.70291 10.0064 4.86246 9.95474L6.11976 9.55415L7.97703 11.3367H7.97727C8.12633 11.4813 8.35204 11.5247 8.54768 11.4466C8.74333 11.3686 8.87051 11.1846 8.86934 10.9812V7.91668L11.478 8.82807V22.7834L1.04328 19.143ZM12.5215 22.7834V8.82809L22.9563 5.18773V19.143L12.5215 22.7834Z" fill="#242734"/>
</svg>
