<svg width="20" height="20" viewBox="0 0 20 20" fill="none" xmlns="http://www.w3.org/2000/svg">
<path d="M19.4687 6.00589L19.47 6.02166L19.4724 6.03732C19.4871 6.13647 19.5815 6.87817 19.3082 8.12232L19.3081 8.12246C18.9148 9.91563 18.0065 11.5466 16.68 12.8402C16.6795 12.8407 16.679 12.8412 16.6785 12.8417L9.94311 19.3042L3.32163 12.8415L3.32135 12.8412C1.99413 11.5478 1.08526 9.91591 0.691748 8.12244L0.691729 8.12235C0.418355 6.87747 0.512926 6.13609 0.527737 6.03813L0.5302 6.02184L0.531585 6.00542C0.808521 2.72274 2.93737 0.499998 5.44562 0.499998C7.10462 0.499998 8.61288 1.45305 9.50542 3.09568L9.93994 3.89539L10.3819 3.09974C11.2804 1.48198 12.8588 0.500411 14.5543 0.500411C17.0629 0.500411 19.1914 2.72313 19.4687 6.00589Z" fill="black" stroke="#EAEAF6"/>
</svg>
