<svg width="24" height="24" viewBox="0 0 24 24" fill="none" xmlns="http://www.w3.org/2000/svg">
<path d="M23.9604 7.49673C23.6101 3.64081 20.8809 0.843266 17.4653 0.843266C15.1898 0.843266 13.1063 2.0678 11.9339 4.03037C10.7721 2.04241 8.77403 0.842804 6.53497 0.842804C3.11985 0.842804 0.390157 3.64035 0.0402911 7.49626C0.0125971 7.66658 -0.100948 8.56294 0.244303 10.0247C0.74187 12.1331 1.89117 14.0509 3.56711 15.5695L11.9284 23.1572L20.4332 15.57C22.1091 14.051 23.2584 12.1336 23.756 10.0247C24.1012 8.5634 23.9877 7.66704 23.9604 7.49673ZM22.8573 9.81332C22.4031 11.739 21.3503 13.4934 19.8156 14.8836L11.9339 21.9156L4.18745 14.8855C2.64998 13.4925 1.59761 11.7385 1.14297 9.81286C0.816182 8.42955 0.950497 7.64812 0.950959 7.64304L0.957882 7.59642C1.2579 4.21823 3.60311 1.76593 6.53497 1.76593C8.69833 1.76593 10.6027 3.09524 11.5065 5.2346L11.9316 6.24219L12.3567 5.2346C13.2461 3.12801 15.2512 1.7664 17.4658 1.7664C20.3972 1.7664 22.7428 4.21869 23.0488 7.64073C23.0498 7.64812 23.1841 8.43001 22.8573 9.81332Z" fill="#242734"/>
</svg>
