<svg width="25" height="25" viewBox="0 0 25 25" fill="none" xmlns="http://www.w3.org/2000/svg">
<path d="M22.2602 11.1429C22.2602 5.00001 17.2659 0 11.1301 0C4.99427 0 0 5.00001 0 11.1429C0 17.2857 4.99427 22.2858 11.1301 22.2858C13.7841 22.2858 16.2385 21.3429 18.1506 19.7714L23.3732 25L25 23.3713L19.7774 18.1718C21.3186 16.2574 22.2602 13.7998 22.2602 11.1429ZM11.1301 20C6.24987 20 2.2831 16.0286 2.2831 11.1429C2.2831 6.25715 6.24997 2.28572 11.1301 2.28572C16.0102 2.28572 19.9771 6.25715 19.9771 11.1429C19.9771 16.0286 16.0102 20 11.1301 20Z" fill="white"/>
</svg>
