<svg width="24" height="24" viewBox="0 0 24 24" fill="none" xmlns="http://www.w3.org/2000/svg">
<path d="M11.9648 13.4769C15.5191 13.4769 18.3695 10.4492 18.3695 6.75692C18.3695 3.06462 15.5191 0 11.9648 0C8.41056 0 5.56012 3.02769 5.56012 6.72C5.56012 10.4123 8.41056 13.4769 11.9648 13.4769ZM11.9648 1.77231C14.5689 1.77231 16.6804 3.98769 16.6804 6.72C16.6804 9.45231 14.5689 11.6677 11.9648 11.6677C9.3607 11.6677 7.24927 9.48923 7.24927 6.75692C7.24927 4.02462 9.3607 1.77231 11.9648 1.77231ZM0.844575 24H23.1554C23.6129 24 24 23.5938 24 23.1138C24 18.4615 20.3754 14.6585 15.9414 14.6585H8.05865C3.62463 14.6585 0 18.4615 0 23.1138C0 23.5938 0.387097 24 0.844575 24ZM8.05865 16.4308H15.9414C19.1789 16.4308 21.8182 18.9415 22.2405 22.2277H1.75953C2.18182 18.9415 4.82111 16.4308 8.05865 16.4308Z" fill="#242734"/>
</svg>
